<svg width="228" height="59" viewBox="0 0 228 59" fill="none" xmlns="http://www.w3.org/2000/svg">
<path d="M3.456 21.176H10.944V47H3.456V21.176ZM7.2 17.576C5.824 17.576 4.704 17.176 3.84 16.376C2.976 15.576 2.544 14.584 2.544 13.4C2.544 12.216 2.976 11.224 3.84 10.424C4.704 9.624 5.824 9.224 7.2 9.224C8.576 9.224 9.696 9.608 10.56 10.376C11.424 11.144 11.856 12.104 11.856 13.256C11.856 14.504 11.424 15.544 10.56 16.376C9.696 17.176 8.576 17.576 7.2 17.576ZM31.6695 20.792C34.8695 20.792 37.4455 21.752 39.3975 23.672C41.3815 25.592 42.3735 28.44 42.3735 32.216V47H34.8855V33.368C34.8855 31.32 34.4375 29.8 33.5415 28.808C32.6455 27.784 31.3495 27.272 29.6535 27.272C27.7655 27.272 26.2615 27.864 25.1415 29.048C24.0215 30.2 23.4615 31.928 23.4615 34.232V47H15.9735V21.176H23.1255V24.2C24.1175 23.112 25.3495 22.28 26.8215 21.704C28.2935 21.096 29.9095 20.792 31.6695 20.792ZM72.4043 21.176L61.5083 47H53.7803L42.9322 21.176H50.6603L57.8123 38.744L65.2043 21.176H72.4043ZM85.8446 41.384C87.1886 41.384 88.3726 41.192 89.3966 40.808C90.4526 40.392 91.4286 39.752 92.3246 38.888L96.3086 43.208C93.8766 45.992 90.3246 47.384 85.6526 47.384C82.7406 47.384 80.1646 46.824 77.9246 45.704C75.6846 44.552 73.9566 42.968 72.7406 40.952C71.5246 38.936 70.9166 36.648 70.9166 34.088C70.9166 31.56 71.5086 29.288 72.6926 27.272C73.9086 25.224 75.5566 23.64 77.6366 22.52C79.7486 21.368 82.1166 20.792 84.7406 20.792C87.2046 20.792 89.4446 21.32 91.4606 22.376C93.4766 23.4 95.0766 24.904 96.2606 26.888C97.4766 28.84 98.0846 31.16 98.0846 33.848L78.9806 37.544C79.5246 38.824 80.3726 39.784 81.5246 40.424C82.7086 41.064 84.1486 41.384 85.8446 41.384ZM84.7406 26.456C82.8526 26.456 81.3166 27.064 80.1326 28.28C78.9486 29.496 78.3246 31.176 78.2606 33.32L90.8366 30.872C90.4846 29.528 89.7646 28.456 88.6766 27.656C87.5886 26.856 86.2766 26.456 84.7406 26.456ZM116.894 20.792C120.094 20.792 122.67 21.752 124.622 23.672C126.606 25.592 127.598 28.44 127.598 32.216V47H120.11V33.368C120.11 31.32 119.662 29.8 118.766 28.808C117.87 27.784 116.574 27.272 114.878 27.272C112.99 27.272 111.486 27.864 110.366 29.048C109.246 30.2 108.686 31.928 108.686 34.232V47H101.198V21.176H108.35V24.2C109.342 23.112 110.574 22.28 112.046 21.704C113.518 21.096 115.134 20.792 116.894 20.792ZM148.017 45.752C147.281 46.296 146.369 46.712 145.281 47C144.225 47.256 143.121 47.384 141.969 47.384C138.865 47.384 136.481 46.6 134.817 45.032C133.153 43.464 132.321 41.16 132.321 38.12V15.464H139.809V21.752H146.193V27.512H139.809V38.024C139.809 39.112 140.081 39.96 140.625 40.568C141.169 41.144 141.953 41.432 142.977 41.432C144.129 41.432 145.153 41.112 146.049 40.472L148.017 45.752ZM161.818 47.384C159.098 47.384 156.65 46.824 154.474 45.704C152.33 44.552 150.65 42.968 149.434 40.952C148.218 38.936 147.61 36.648 147.61 34.088C147.61 31.528 148.218 29.24 149.434 27.224C150.65 25.208 152.33 23.64 154.474 22.52C156.65 21.368 159.098 20.792 161.818 20.792C164.538 20.792 166.97 21.368 169.114 22.52C171.258 23.64 172.938 25.208 174.154 27.224C175.37 29.24 175.978 31.528 175.978 34.088C175.978 36.648 175.37 38.936 174.154 40.952C172.938 42.968 171.258 44.552 169.114 45.704C166.97 46.824 164.538 47.384 161.818 47.384ZM161.818 41.24C163.738 41.24 165.306 40.6 166.522 39.32C167.77 38.008 168.394 36.264 168.394 34.088C168.394 31.912 167.77 30.184 166.522 28.904C165.306 27.592 163.738 26.936 161.818 26.936C159.898 26.936 158.314 27.592 157.066 28.904C155.818 30.184 155.194 31.912 155.194 34.088C155.194 36.264 155.818 38.008 157.066 39.32C158.314 40.6 159.898 41.24 161.818 41.24ZM186.215 24.584C187.111 23.336 188.311 22.392 189.815 21.752C191.351 21.112 193.111 20.792 195.095 20.792V27.704C194.263 27.64 193.703 27.608 193.415 27.608C191.271 27.608 189.591 28.216 188.375 29.432C187.159 30.616 186.551 32.408 186.551 34.808V47H179.063V21.176H186.215V24.584ZM223.831 21.176V42.68C223.831 47.416 222.631 50.936 220.231 53.24C217.831 55.544 214.343 56.696 209.767 56.696C207.335 56.696 205.031 56.392 202.855 55.784C200.711 55.176 198.903 54.296 197.431 53.144L200.407 47.768C201.495 48.664 202.823 49.368 204.391 49.88C205.959 50.392 207.543 50.648 209.143 50.648C211.639 50.648 213.463 50.072 214.615 48.92C215.767 47.768 216.343 46.008 216.343 43.64V42.776C215.383 43.736 214.247 44.472 212.935 44.984C211.623 45.496 210.215 45.752 208.711 45.752C205.319 45.752 202.631 44.792 200.647 42.872C198.663 40.92 197.671 38.008 197.671 34.136V21.176H205.159V33.032C205.159 37.224 206.903 39.32 210.391 39.32C212.183 39.32 213.623 38.744 214.711 37.592C215.799 36.408 216.343 34.664 216.343 32.36V21.176H223.831Z" fill="white"/>
</svg>
