<svg width="24" height="24" viewBox="0 0 24 24" fill="none" xmlns="http://www.w3.org/2000/svg">
    <g clip-path="url(#clip0_3542_41359)">
        <g filter="url(#filter0_d_3542_41359)">
            <g filter="url(#filter1_d_3542_41359)">
                <path d="M0 4.1636C0 1.86411 1.8641 0 4.1636 0H19.8364C22.1359 0 24 1.8641 24 4.1636V19.7771C24 22.0766 22.1359 23.9407 19.8364 23.9407H4.1636C1.86411 23.9407 0 22.0766 0 19.7771V4.1636Z"
                      fill="#383838"/>
            </g>
            <g filter="url(#filter2_d_3542_41359)">
                <path d="M19.8364 23.4202V23.9407H4.1636V23.4202H19.8364ZM23.4795 19.7771V4.1636C23.4795 2.15154 21.8485 0.52045 19.8364 0.520449H4.1636C2.18298 0.520449 0.571508 2.10097 0.521635 4.06957L0.520449 4.1636V19.7771C0.520449 21.7891 2.15154 23.4202 4.1636 23.4202V23.9407C1.90002 23.9407 0.0583271 22.1343 0.00135534 19.8845L0 19.7771V4.1636C2.31062e-07 1.90002 1.80634 0.058327 4.05618 0.00135534L4.1636 0H19.8364L19.9438 0.00135534C22.1937 0.0583274 24 1.90002 24 4.1636V19.7771L23.9986 19.8845C23.9417 22.1343 22.1 23.9407 19.8364 23.9407V23.4202C21.8485 23.4202 23.4795 21.7891 23.4795 19.7771Z"
                      fill="#434343"/>
            </g>
            <g filter="url(#filter3_d_3542_41359)">
                <path d="M2.42969 3.81755C2.42969 3.05106 3.05106 2.42969 3.81755 2.42969H5.20542C5.97191 2.42969 6.59328 3.05106 6.59328 3.81755V20.125C6.59328 20.8915 5.97191 21.5128 5.20542 21.5128H3.81755C3.05106 21.5128 2.42969 20.8915 2.42969 20.125V3.81755Z"
                      fill="white"/>
            </g>
        </g>
    </g>
    <defs>
        <filter id="filter0_d_3542_41359" x="-91" y="-95" width="222" height="221.941"
                filterUnits="userSpaceOnUse" color-interpolation-filters="sRGB">
            <feFlood flood-opacity="0" result="BackgroundImageFix"/>
            <feColorMatrix in="SourceAlpha" type="matrix"
                           values="0 0 0 0 0 0 0 0 0 0 0 0 0 0 0 0 0 0 127 0" result="hardAlpha"/>
            <feOffset dx="8" dy="4"/>
            <feGaussianBlur stdDeviation="49.5"/>
            <feComposite in2="hardAlpha" operator="out"/>
            <feColorMatrix type="matrix"
                           values="0 0 0 0 1 0 0 0 0 0.682353 0 0 0 0 0.356863 0 0 0 0.15 0"/>
            <feBlend mode="normal" in2="BackgroundImageFix" result="effect1_dropShadow_3542_41359"/>
            <feBlend mode="normal" in="SourceGraphic" in2="effect1_dropShadow_3542_41359"
                     result="shape"/>
        </filter>
        <filter id="filter1_d_3542_41359" x="-84" y="-92" width="222" height="221.941"
                filterUnits="userSpaceOnUse" color-interpolation-filters="sRGB">
            <feFlood flood-opacity="0" result="BackgroundImageFix"/>
            <feColorMatrix in="SourceAlpha" type="matrix"
                           values="0 0 0 0 0 0 0 0 0 0 0 0 0 0 0 0 0 0 127 0" result="hardAlpha"/>
            <feOffset dx="15" dy="7"/>
            <feGaussianBlur stdDeviation="49.5"/>
            <feComposite in2="hardAlpha" operator="out"/>
            <feColorMatrix type="matrix" values="0 0 0 0 0 0 0 0 0 0 0 0 0 0 0 0 0 0 0.25 0"/>
            <feBlend mode="normal" in2="BackgroundImageFix" result="effect1_dropShadow_3542_41359"/>
            <feBlend mode="normal" in="SourceGraphic" in2="effect1_dropShadow_3542_41359"
                     result="shape"/>
        </filter>
        <filter id="filter2_d_3542_41359" x="-84" y="-92" width="222" height="221.941"
                filterUnits="userSpaceOnUse" color-interpolation-filters="sRGB">
            <feFlood flood-opacity="0" result="BackgroundImageFix"/>
            <feColorMatrix in="SourceAlpha" type="matrix"
                           values="0 0 0 0 0 0 0 0 0 0 0 0 0 0 0 0 0 0 127 0" result="hardAlpha"/>
            <feOffset dx="15" dy="7"/>
            <feGaussianBlur stdDeviation="49.5"/>
            <feComposite in2="hardAlpha" operator="out"/>
            <feColorMatrix type="matrix" values="0 0 0 0 0 0 0 0 0 0 0 0 0 0 0 0 0 0 0.25 0"/>
            <feBlend mode="normal" in2="BackgroundImageFix" result="effect1_dropShadow_3542_41359"/>
            <feBlend mode="normal" in="SourceGraphic" in2="effect1_dropShadow_3542_41359"
                     result="shape"/>
        </filter>
        <filter id="filter3_d_3542_41359" x="-85.5703" y="-86.5703" width="202.164" height="217.082"
                filterUnits="userSpaceOnUse" color-interpolation-filters="sRGB">
            <feFlood flood-opacity="0" result="BackgroundImageFix"/>
            <feColorMatrix in="SourceAlpha" type="matrix"
                           values="0 0 0 0 0 0 0 0 0 0 0 0 0 0 0 0 0 0 127 0" result="hardAlpha"/>
            <feOffset dx="11" dy="10"/>
            <feGaussianBlur stdDeviation="49.5"/>
            <feComposite in2="hardAlpha" operator="out"/>
            <feColorMatrix type="matrix"
                           values="0 0 0 0 1 0 0 0 0 0.682353 0 0 0 0 0.356863 0 0 0 0.32 0"/>
            <feBlend mode="normal" in2="BackgroundImageFix" result="effect1_dropShadow_3542_41359"/>
            <feBlend mode="normal" in="SourceGraphic" in2="effect1_dropShadow_3542_41359"
                     result="shape"/>
        </filter>
        <clipPath id="clip0_3542_41359">
            <rect width="24" height="23.9407" fill="white"/>
        </clipPath>
    </defs>
</svg>
