<svg width="25" height="24" viewBox="0 0 25 24" fill="none" xmlns="http://www.w3.org/2000/svg">
<path d="M0.210938 4.17391C0.210938 1.86872 2.07966 0 4.38485 0H20.0965C22.4017 0 24.2704 1.86872 24.2704 4.17391V19.8261C24.2704 22.1313 22.4017 24 20.0965 24H4.38485C2.07966 24 0.210938 22.1313 0.210938 19.8261V4.17391Z" fill="white"/>
<path d="M20.0965 23.4783V24H4.38485V23.4783H20.0965ZM23.7487 19.8261V4.17391C23.7487 2.15687 22.1135 0.521739 20.0965 0.521739H4.38485C2.39933 0.521739 0.783862 2.10618 0.733865 4.07965L0.732677 4.17391V19.8261C0.732677 21.8431 2.36781 23.4783 4.38485 23.4783V24C2.11566 24 0.269409 22.1892 0.212296 19.9338L0.210938 19.8261V4.17391C0.210938 1.90473 2.02175 0.0584715 4.27717 0.0013587L4.38485 0H20.0965L20.2042 0.0013587C22.4596 0.0584719 24.2704 1.90473 24.2704 4.17391V19.8261L24.269 19.9338C24.2119 22.1892 22.3657 24 20.0965 24V23.4783C22.1135 23.4783 23.7487 21.8431 23.7487 19.8261Z" fill="#E4E4E4"/>
<path d="M2.42578 3.8249C2.42578 3.0565 3.04715 2.43359 3.81365 2.43359H5.20151C5.96801 2.43359 6.58938 3.0565 6.58938 3.8249V20.1727C6.58938 20.9411 5.96801 21.564 5.20151 21.564H3.81365C3.04715 21.564 2.42578 20.9411 2.42578 20.1727V3.8249Z" fill="#545454"/>
</svg>
